<svg width="50" height="50" viewBox="0 0 50 50" fill="none" xmlns="http://www.w3.org/2000/svg">
<g clip-path="url(#clip0_5_209)">
<path fill-rule="evenodd" clip-rule="evenodd" d="M37.8468 50C37.4867 50 37.1946 49.7079 37.1946 49.348V47.0404H12.8057V49.3478C12.8057 49.7078 12.5137 50.0001 12.1536 50.0001C11.7935 50 11.5014 49.7079 11.5014 49.348V46.3883C11.5014 46.0282 11.7934 45.7362 12.1536 45.7362L37.8468 45.7361C38.2069 45.7361 38.4989 46.0283 38.4989 46.3884V49.3478C38.4989 49.7078 38.2069 50.0001 37.8468 50ZM41.8157 50C41.4555 50 41.1636 49.7079 41.1636 49.348V39.5374H38.4989V42.2875C38.4989 42.6475 38.2069 42.9396 37.8468 42.9396H12.1536C11.7935 42.9396 11.5014 42.6476 11.5014 42.2875V34.7323H8.83677V49.3478C8.83677 49.7078 8.54484 50.0001 8.18462 50.0001C7.82441 50 7.53259 49.7079 7.53259 49.348V34.0802C7.53259 33.7201 7.82441 33.428 8.18462 33.428H12.1535C12.5136 33.428 12.8057 33.7202 12.8057 34.0802V41.6354H37.1946V38.8852C37.1946 38.5251 37.4865 38.2331 37.8468 38.2331H41.8157C42.1758 38.2331 42.4677 38.5253 42.4677 38.8852V49.3478C42.4677 49.7078 42.1758 50.0001 41.8157 50Z" fill="white"/>
<path fill-rule="evenodd" clip-rule="evenodd" d="M16.3354 36.0107C15.5448 36.0107 14.9016 36.6538 14.9016 37.444C14.9016 38.2354 15.5448 38.8785 16.3354 38.8785C17.126 38.8785 17.7691 38.2355 17.7691 37.444C17.7691 36.6538 17.126 36.0107 16.3354 36.0107ZM16.3354 40.1828C14.8257 40.1828 13.5973 38.9544 13.5973 37.444C13.5973 35.9348 14.8256 34.7064 16.3354 34.7064C17.8452 34.7064 19.0734 35.9349 19.0734 37.444C19.0734 38.9544 17.8452 40.1828 16.3354 40.1828Z" fill="white"/>
<path fill-rule="evenodd" clip-rule="evenodd" d="M20.6096 39.3734H35.0986V37.178C35.0986 36.2609 34.345 35.5149 33.4191 35.5149L20.6096 35.5147L20.6096 39.3734ZM35.7507 40.6777H19.9575C19.5972 40.6777 19.3054 40.3855 19.3054 40.0256V34.8638C19.3054 34.5026 19.5972 34.2117 19.9573 34.2117L33.4191 34.2116C35.0643 34.2116 36.4026 35.542 36.4026 37.1781L36.4028 40.0256C36.4028 40.3855 36.1108 40.6777 35.7507 40.6777Z" fill="white"/>
<path fill-rule="evenodd" clip-rule="evenodd" d="M46.4445 23.7058H3.55551C3.34512 23.7058 3.14754 23.6051 3.02516 23.4342C2.90278 23.2632 2.87014 23.0435 2.93796 22.8442L7.77138 8.6397C7.86123 8.37476 8.10956 8.19702 8.38881 8.19702H20.7044C21.0646 8.19702 21.3565 8.48918 21.3565 8.84917C21.3565 9.20926 21.0646 9.50131 20.7044 9.50131H8.85583L4.46612 22.4016H45.5308L41.0913 9.50131H29.241C28.8808 9.50131 28.5888 9.20926 28.5888 8.84917C28.5889 8.48918 28.8808 8.19702 29.2409 8.19702H41.5567C41.8352 8.19702 42.0827 8.37373 42.1735 8.63751L47.0615 22.842C47.1295 23.0413 47.0978 23.261 46.9755 23.4331C46.8532 23.6039 46.6552 23.706 46.4445 23.7058Z" fill="white"/>
<path fill-rule="evenodd" clip-rule="evenodd" d="M16.9015 23.7059C16.5414 23.7059 16.2494 23.415 16.2494 23.0538V12.8356C16.2494 12.4755 16.5413 12.1835 16.9015 12.1835C17.2617 12.1835 17.5536 12.4756 17.5536 12.8356V23.0537C17.5536 23.415 17.2616 23.706 16.9015 23.7059ZM33.0441 23.7059C32.6838 23.7059 32.3919 23.415 32.3919 23.0538L32.392 12.8356C32.392 12.4755 32.6838 12.1835 33.0441 12.1835C33.4043 12.1835 33.6962 12.4756 33.6962 12.8356V23.0537C33.6962 23.415 33.4043 23.706 33.0441 23.7059Z" fill="white"/>
<path fill-rule="evenodd" clip-rule="evenodd" d="M17.7068 12.1847H32.2388L24.9727 6.15571L17.7068 12.1847ZM34.046 13.4878H15.8995C15.6247 13.4878 15.3794 13.3158 15.2861 13.0576C15.1928 12.7993 15.2716 12.5096 15.4831 12.3341L24.5564 4.80607C24.7978 4.60572 25.1478 4.60572 25.3892 4.80619L34.4625 12.334C34.6739 12.5096 34.7527 12.7994 34.6594 13.0576C34.5662 13.3157 34.3208 13.4878 34.046 13.4878Z" fill="white"/>
<path fill-rule="evenodd" clip-rule="evenodd" d="M32.6084 9.50132C32.2483 9.50132 31.9563 9.20927 31.9563 8.84918V3.27422C31.9563 2.91424 32.2483 2.62219 32.6084 2.62219C32.9687 2.62208 33.2606 2.91424 33.2606 3.27434V8.84917C33.2606 9.20927 32.9687 9.50132 32.6084 9.50132ZM36.1198 9.50132C35.7596 9.50132 35.4675 9.20927 35.4675 8.84918V3.27422C35.4675 2.91424 35.7596 2.62219 36.1197 2.62219C36.48 2.62208 36.7718 2.91424 36.7718 3.27434L36.7719 8.84917C36.7719 9.20927 36.4799 9.50132 36.1198 9.50132Z" fill="white"/>
<path fill-rule="evenodd" clip-rule="evenodd" d="M31.896 2.62208H36.8322V1.30429H31.896V2.62208ZM37.4843 3.92637H31.2438C30.8836 3.92637 30.5917 3.63432 30.5917 3.27434V0.652145C30.5917 0.292047 30.8836 0 31.2437 0H37.4843C37.8444 0 38.1363 0.292047 38.1363 0.652145V3.27423C38.1363 3.63432 37.8444 3.92649 37.4843 3.92637Z" fill="white"/>
<path fill-rule="evenodd" clip-rule="evenodd" d="M45.0046 50H4.99577C4.63567 50 4.34363 49.708 4.34363 49.348V23.0537C4.34363 22.6937 4.63567 22.4017 4.99577 22.4017C5.35599 22.4016 5.64792 22.6937 5.64792 23.0538V48.6957H44.3525V23.0537C44.3525 22.6937 44.6443 22.4017 45.0045 22.4017C45.3645 22.4016 45.6566 22.6937 45.6566 23.0538V49.3479C45.6566 49.7078 45.3645 50.0001 45.0046 50Z" fill="white"/>
</g>
<defs>
<clipPath id="clip0_5_209">
<rect width="50" height="50" fill="white"/>
</clipPath>
</defs>
</svg>
