<svg width="22" height="30" viewBox="0 0 22 30" fill="none" xmlns="http://www.w3.org/2000/svg">
<path d="M11 0.9375C8.26498 0.9375 5.64192 2.02399 3.70797 3.95796C1.77399 5.89193 0.6875 8.51498 0.6875 11.25C0.6875 16.6969 9.875 28.2187 10.2687 28.7156C10.3566 28.8251 10.4679 28.9135 10.5945 28.9742C10.721 29.0349 10.8596 29.0665 11 29.0665C11.1404 29.0665 11.2789 29.0349 11.4055 28.9742C11.5321 28.9135 11.6434 28.8251 11.7313 28.7156C12.125 28.2187 21.3125 16.6969 21.3125 11.25C21.3125 8.51498 20.226 5.89193 18.292 3.95796C16.3581 2.02399 13.735 0.9375 11 0.9375ZM11 14.0625C10.2583 14.0625 9.5333 13.8426 8.91657 13.4305C8.29992 13.0184 7.81925 12.4327 7.53545 11.7476C7.25165 11.0623 7.17732 10.3084 7.32207 9.58088C7.46675 8.85345 7.8239 8.18528 8.34838 7.66088C8.87278 7.1364 9.54095 6.77925 10.2684 6.63455C10.9959 6.48986 11.7499 6.56412 12.4351 6.84795C13.1203 7.13178 13.7059 7.61243 14.118 8.22908C14.5301 8.8458 14.75 9.57082 14.75 10.3125C14.75 11.3071 14.3549 12.2609 13.6516 12.9641C12.9484 13.6674 11.9946 14.0625 11 14.0625Z" fill="#649831"/>
</svg>
