<svg width="50" height="50" viewBox="0 0 50 50" fill="none" xmlns="http://www.w3.org/2000/svg">
<g clip-path="url(#clip0_5_102)">
<path d="M34.0927 31.3561C33.9367 30.9233 33.4594 30.6989 33.0266 30.8549C32.5938 31.0108 32.3694 31.4882 32.5253 31.9209C32.5292 31.9315 32.5333 31.942 32.5375 31.9526C33.2972 33.9351 33.3522 35.4512 32.6875 36.1176C31.8811 36.9223 29.8727 36.6707 27.3137 35.4462C23.8878 33.6673 20.7737 31.3434 18.0932 28.5655C11.5682 22.0398 8.87592 15.6364 10.5411 13.9712C11.0725 13.5516 11.7631 13.3904 12.4254 13.5314C12.8841 13.5651 13.2835 13.2205 13.3172 12.7617C13.3498 12.3182 13.0284 11.9273 12.587 11.8737C11.4288 11.6688 10.2405 12.0065 9.36323 12.79C6.31108 15.8413 10.9768 23.8007 16.9153 29.7401C19.7289 32.6517 22.9982 35.0852 26.5948 36.9448C27.2462 37.2566 27.9174 37.5252 28.6041 37.7486L22.6855 39.9928C14.7824 36.9881 9.09302 29.9817 7.77468 21.6299C7.70335 21.1754 7.27706 20.8647 6.82255 20.936C6.36804 21.0073 6.05733 21.4336 6.12865 21.8881C6.25944 22.7212 6.43437 23.5542 6.64845 24.3688C8.56666 31.6367 13.619 37.6745 20.4347 40.8441L10.6935 44.5302C10.6489 44.4556 10.5926 44.3888 10.5269 44.3319C8.05124 42.3442 6.49789 39.4292 6.22862 36.2659L5.8421 31.5852C5.81169 31.1317 5.41935 30.7887 4.96577 30.8191C4.95713 30.8198 4.94849 30.8204 4.93995 30.8213C4.48138 30.8578 4.13912 31.2592 4.17556 31.7178C4.17566 31.7196 4.17587 31.7216 4.17608 31.7235L4.56926 36.4025C4.86206 39.7838 6.43937 42.9242 8.97671 45.1782L2.02775 47.8089L3.27726 42.6809C3.38628 42.2337 3.11222 41.7828 2.665 41.6738C2.21778 41.5648 1.76692 41.8388 1.6579 42.286L0.0326953 48.9501C-0.0768454 49.3969 0.19659 49.848 0.643499 49.9574C0.807393 49.9976 0.979514 49.987 1.13726 49.9272L31.9586 38.2651C32.0076 38.2411 32.054 38.2121 32.0969 38.1785C32.7639 38.076 33.3823 37.7676 33.8653 37.2963C34.6908 36.4708 35.4013 34.769 34.0927 31.3561Z" fill="white"/>
<path d="M41.9538 29.2078C37.4506 27.522 32.5835 27.0493 27.8401 27.8375L24.8638 28.3373C24.412 28.4241 24.1162 28.8607 24.203 29.3125C24.2869 29.749 24.6987 30.0428 25.1387 29.98L28.1142 29.4843C32.5689 28.7437 37.1401 29.1879 41.369 30.7722C41.4628 30.8054 41.5619 30.822 41.6614 30.8213C42.1214 30.822 42.495 30.4498 42.4958 29.9897C42.4964 29.6413 42.2802 29.3295 41.9538 29.2078Z" fill="white"/>
<path d="M44.9151 16.302C44.7173 15.8865 44.2202 15.7101 43.8047 15.908L26.3115 24.2381C25.8962 24.4358 25.7197 24.9328 25.9174 25.3483L25.9175 25.3485C26.1153 25.7638 26.6123 25.9403 27.0277 25.7426L27.0279 25.7425L44.5211 17.4124C44.9366 17.2146 45.113 16.7175 44.9151 16.302Z" fill="white"/>
<path d="M20.2397 5.65366C20.1481 5.20279 19.7083 4.91155 19.2575 5.00318C18.8066 5.09481 18.5154 5.53453 18.607 5.9854C18.609 5.9954 18.6113 6.00529 18.6137 6.01518C19.668 10.7257 19.2335 15.6476 17.37 20.1005L16.1588 23.0069C15.9837 23.4304 16.1836 23.9157 16.6061 24.0931C16.7073 24.1357 16.8161 24.1575 16.926 24.1573C17.2622 24.1573 17.5654 23.9553 17.6949 23.645L18.9069 20.7419C20.9035 15.972 21.3693 10.6997 20.2397 5.65366Z" fill="white"/>
<path d="M45.8264 29.9883C44.4462 29.9883 43.3274 31.1072 43.3274 32.4874C43.3274 33.8676 44.4462 34.9864 45.8264 34.9864C47.2066 34.9864 48.3254 33.8676 48.3254 32.4874C48.3254 31.1072 47.2066 29.9883 45.8264 29.9883ZM45.8264 33.3204C45.3664 33.3204 44.9934 32.9474 44.9934 32.4874C44.9934 32.0273 45.3664 31.6544 45.8264 31.6544C46.2864 31.6544 46.6594 32.0273 46.6594 32.4874C46.6594 32.9474 46.2864 33.3204 45.8264 33.3204Z" fill="white"/>
<path d="M25.8342 6.66406C24.454 6.66406 23.3352 7.7829 23.3352 9.16309C23.3352 10.5433 24.454 11.6621 25.8342 11.6621C27.2144 11.6621 28.3333 10.5433 28.3333 9.16309C28.3333 7.7829 27.2144 6.66406 25.8342 6.66406ZM25.8342 9.9961C25.3742 9.9961 25.0012 9.62312 25.0012 9.16309C25.0012 8.70306 25.3742 8.33008 25.8342 8.33008C26.2943 8.33008 26.6672 8.70306 26.6672 9.16309C26.6672 9.62312 26.2943 9.9961 25.8342 9.9961Z" fill="white"/>
<path d="M18.3371 3.33204C19.2572 3.33204 20.0031 2.58613 20.0031 1.66602C20.0031 0.745901 19.2572 0 18.3371 0C17.417 0 16.6711 0.745901 16.6711 1.66602C16.6711 2.58613 17.417 3.33204 18.3371 3.33204Z" fill="white"/>
<path d="M41.6614 4.16504C41.2013 4.16504 40.8284 4.53802 40.8284 4.99805V5.83106C40.8284 6.29109 41.2013 6.66407 41.6614 6.66407C42.1214 6.66407 42.4944 6.29109 42.4944 5.83106V4.99805C42.4944 4.53802 42.1214 4.16504 41.6614 4.16504Z" fill="white"/>
<path d="M41.6614 0C41.2013 0 40.8284 0.37298 40.8284 0.833009V1.66602C40.8284 2.12605 41.2013 2.49903 41.6614 2.49903C42.1214 2.49903 42.4944 2.12605 42.4944 1.66602V0.833009C42.4944 0.37298 42.1214 0 41.6614 0Z" fill="white"/>
<path d="M44.1604 2.49902H43.3274C42.8674 2.49902 42.4944 2.872 42.4944 3.33203C42.4944 3.79206 42.8674 4.16504 43.3274 4.16504H44.1604C44.6204 4.16504 44.9934 3.79206 44.9934 3.33203C44.9934 2.872 44.6204 2.49902 44.1604 2.49902Z" fill="white"/>
<path d="M39.9954 2.49902H39.1624C38.7023 2.49902 38.3293 2.872 38.3293 3.33203C38.3293 3.79206 38.7023 4.16504 39.1624 4.16504H39.9954C40.4554 4.16504 40.8284 3.79206 40.8284 3.33203C40.8284 2.872 40.4554 2.49902 39.9954 2.49902Z" fill="white"/>
<path d="M35.8303 9.14563H31.6478C31.1877 9.14563 30.8148 9.51861 30.8148 9.97864V14.1612C30.8148 14.6212 31.1877 14.9942 31.6478 14.9942H35.8303C36.2903 14.9942 36.6633 14.6212 36.6633 14.1612V9.97864C36.6633 9.51861 36.2903 9.14563 35.8303 9.14563ZM34.9973 13.3282H32.4808V10.8116H34.9973V13.3282Z" fill="white"/>
<path d="M29.7619 16.1017C29.4561 15.7752 28.9472 15.7486 28.609 16.0413L20.2789 23.5383C19.9371 23.8461 19.9095 24.3727 20.2172 24.7145C20.525 25.0563 21.0516 25.0839 21.3934 24.7762L29.7235 17.2791C30.0593 16.9645 30.0765 16.4375 29.7619 16.1017Z" fill="white"/>
<path d="M44.9934 19.1592C44.5334 19.1592 44.1604 19.5322 44.1604 19.9922V20.8252C44.1604 21.2852 44.5334 21.6582 44.9934 21.6582C45.4534 21.6582 45.8264 21.2852 45.8264 20.8252V19.9922C45.8264 19.5322 45.4534 19.1592 44.9934 19.1592Z" fill="white"/>
<path d="M48.5279 19.0159L47.9389 18.427C47.608 18.1073 47.0807 18.1165 46.761 18.4474C46.4493 18.7702 46.4493 19.282 46.761 19.6049L47.35 20.1938C47.6809 20.5135 48.2082 20.5043 48.5279 20.1734C48.8397 19.8505 48.8397 19.3387 48.5279 19.0159Z" fill="white"/>
<path d="M49.1584 15.8271H48.3254C47.8654 15.8271 47.4924 16.2001 47.4924 16.6602C47.4924 17.1202 47.8654 17.4932 48.3254 17.4932H49.1584C49.6185 17.4932 49.9915 17.1202 49.9915 16.6602C49.9915 16.2001 49.6185 15.8271 49.1584 15.8271Z" fill="white"/>
<path d="M48.5075 13.1266C48.1847 12.8148 47.6729 12.8148 47.35 13.1266L46.7611 13.7155C46.4358 14.0409 46.4359 14.5683 46.7613 14.8936C46.9175 15.0497 47.1292 15.1375 47.35 15.1375C47.5709 15.1375 47.7827 15.0496 47.9389 14.8934L48.5279 14.3045C48.8475 13.9735 48.8384 13.4461 48.5075 13.1266Z" fill="white"/>
<path d="M44.9934 11.6621C44.5334 11.6621 44.1604 12.0351 44.1604 12.4951V13.3281C44.1604 13.7882 44.5334 14.1611 44.9934 14.1611C45.4534 14.1611 45.8264 13.7882 45.8264 13.3281V12.4951C45.8264 12.0351 45.4534 11.6621 44.9934 11.6621Z" fill="white"/>
<path d="M43.2258 13.7155L42.6368 13.1265C42.3059 12.807 41.7786 12.816 41.459 13.147C41.1472 13.4697 41.1472 13.9815 41.459 14.3044L42.0479 14.8934C42.3788 15.213 42.9061 15.2039 43.2258 14.873C43.5376 14.5501 43.5376 14.0383 43.2258 13.7155Z" fill="white"/>
<path d="M9.96622 3.60196C9.86814 3.30062 9.60751 3.08112 9.29399 3.03551L6.8491 2.67982L5.7587 0.464849C5.51566 0.0521969 4.9841 -0.0853537 4.57145 0.157677C4.44462 0.232335 4.33894 0.338023 4.26428 0.464849L3.16887 2.67982L0.72399 3.03551C0.268646 3.10122 -0.0471683 3.52366 0.0185353 3.979C0.044671 4.16028 0.129846 4.32782 0.260837 4.45579L2.02931 6.18012L1.61281 8.61501C1.53284 9.06806 1.83522 9.50018 2.28828 9.58015C2.47071 9.61233 2.65855 9.58286 2.82234 9.49633L5.00899 8.34344L7.19564 9.493C7.60287 9.70708 8.10653 9.55058 8.32061 9.14334C8.40589 8.98122 8.43526 8.79556 8.40433 8.61501L7.98783 6.18012L9.75714 4.45579C9.98361 4.23411 10.0646 3.9032 9.96622 3.60196ZM6.5084 5.29297C6.31223 5.48404 6.22258 5.75935 6.2685 6.02935L6.47508 7.23304L5.39634 6.6641C5.15383 6.53675 4.86415 6.53675 4.62164 6.6641L3.53873 7.23221L3.74531 6.02851C3.79207 5.75956 3.70397 5.48466 3.50957 5.29297L2.63408 4.4408L3.84277 4.26503C4.11413 4.22567 4.34872 4.05522 4.47003 3.80938L5.00899 2.71564L5.54878 3.80938C5.66998 4.05501 5.90416 4.22536 6.1752 4.26503L7.38306 4.4408L6.5084 5.29297Z" fill="white"/>
<path d="M47.1776 41.7546H47.1742L46.831 41.2398C44.9067 38.362 41.8807 36.4053 38.4668 35.831C38.0113 35.7661 37.5894 36.0826 37.5244 36.538C37.4616 36.9781 37.7554 37.3899 38.1919 37.4737C40.6543 37.8917 42.8983 39.1427 44.5486 41.0173C43.1611 41.2669 41.9476 42.1002 41.2165 43.3056C40.3194 44.9124 40.8947 46.9421 42.5015 47.8393C44.1082 48.7364 46.138 48.1611 47.0351 46.5543C47.3778 45.8928 47.5628 45.1609 47.5757 44.416C48.4621 45.7033 48.533 47.3844 47.7582 48.7418C47.5235 49.1375 47.6539 49.6486 48.0496 49.8833C48.4453 50.118 48.9563 49.9875 49.191 49.5918C49.1985 49.5791 49.2057 49.5663 49.2126 49.5532C50.7378 46.8288 49.8394 43.3863 47.1776 41.7546ZM45.5823 45.7413C45.1377 46.547 44.1243 46.8395 43.3187 46.3949C42.5132 45.9503 42.2205 44.9369 42.6651 44.1313C42.6676 44.1269 42.6701 44.1223 42.6726 44.1178C43.1642 43.3129 43.9934 42.7733 44.9284 42.65C45.0733 42.6461 45.2166 42.6794 45.3449 42.7467C46.048 43.139 46.0855 44.84 45.5823 45.7413Z" fill="white"/>
</g>
<defs>
<clipPath id="clip0_5_102">
<rect width="50" height="50" fill="white"/>
</clipPath>
</defs>
</svg>
