<svg width="30" height="30" viewBox="0 0 30 30" fill="none" xmlns="http://www.w3.org/2000/svg">
<path d="M17.5072 18.3803C16.7608 18.8779 15.8939 19.1409 15 19.1409C14.1062 19.1409 13.2392 18.8779 12.4929 18.3803L0.199746 10.1846C0.131543 10.1392 0.0650977 10.0918 0 10.043V23.4725C0 25.0123 1.24952 26.2343 2.7617 26.2343H27.2383C28.778 26.2343 29.9999 24.9848 29.9999 23.4725V10.043C29.9348 10.0919 29.8682 10.1393 29.7998 10.1849L17.5072 18.3803Z" fill="#649831"/>
<path d="M1.17481 8.72219L13.468 16.918C13.9333 17.2282 14.4666 17.3833 14.9999 17.3833C15.5333 17.3833 16.0667 17.2282 16.532 16.918L28.8252 8.72219C29.5609 8.23206 30 7.41174 30 6.52639C30 5.00406 28.7615 3.76562 27.2393 3.76562H2.76077C1.2385 3.76568 0 5.00412 0 6.52785C0 7.41174 0.439219 8.23206 1.17481 8.72219Z" fill="#649831"/>
</svg>
