<svg width="40" height="40" viewBox="0 0 40 40" fill="none" xmlns="http://www.w3.org/2000/svg">
<g clip-path="url(#clip0_30_31)">
<path d="M18.1818 15.4548V17.273H16.3636V20.0002H18.1818V28.182H21.8181V20.0002H24.2363L24.5454 17.273H21.8181V15.682C21.8181 14.9457 21.8909 14.5548 23.0272 14.5548H24.5454V11.8184H22.1091C19.2 11.8184 18.1818 13.182 18.1818 15.4548Z" fill="#0E0E0E"/>
<path d="M20 0C8.9543 0 0 8.9543 0 20C0 31.0457 8.9543 40 20 40C31.0457 40 40 31.0457 40 20C40 8.9543 31.0457 0 20 0ZM20 38.1818C9.95844 38.1818 1.8182 30.0416 1.8182 20C1.8182 9.95844 9.95844 1.8182 20 1.8182C30.0416 1.8182 38.1818 9.95844 38.1818 20C38.1818 30.0416 30.0416 38.1818 20 38.1818Z" fill="#0E0E0E"/>
</g>
<defs>
<clipPath id="clip0_30_31">
<rect width="40" height="40" fill="white"/>
</clipPath>
</defs>
</svg>
