<svg width="40" height="40" viewBox="0 0 40 40" fill="none" xmlns="http://www.w3.org/2000/svg">
<g clip-path="url(#clip0_30_165)">
<path d="M18.1817 15.4548V17.273H16.3635V20.0003H18.1817V28.1821H21.8181V20.0003H24.2363L24.5453 17.273H21.8181V15.6821C21.8181 14.9458 21.8908 14.5548 23.0271 14.5548H24.5453V11.8184H22.109C19.1999 11.8185 18.1817 13.1821 18.1817 15.4548Z" fill="white"/>
<path d="M20 0C8.9543 0 0 8.9543 0 20C0 31.0457 8.9543 40 20 40C31.0457 40 40 31.0457 40 20C40 8.9543 31.0457 0 20 0ZM20 38.1818C9.95844 38.1818 1.8182 30.0416 1.8182 20C1.8182 9.95844 9.95844 1.8182 20 1.8182C30.0416 1.8182 38.1818 9.95844 38.1818 20C38.1818 30.0416 30.0416 38.1818 20 38.1818Z" fill="white"/>
</g>
<defs>
<clipPath id="clip0_30_165">
<rect width="40" height="40" fill="white"/>
</clipPath>
</defs>
</svg>
