<svg width="1321" height="143" viewBox="0 0 1321 143" fill="none" xmlns="http://www.w3.org/2000/svg">
<path d="M71.6 82.6H121.2C117.6 119.6 98.2 140 72.4 140C42.2 140 23 112 23 71.2C23 27.6 43.8 2.59999 72.4 2.59999C97 2.59999 114.4 21.4 119.8 50.4H142C133.4 20 106.4 0 72.4 0C31 0 0 29.4 0 71.2C0 113 31 142.6 72.4 142.6C110.4 142.6 139.8 117.4 144.2 80H71.6V82.6Z" fill="white"/>
<path d="M162.984 140.6H185.384V72.8H196.984L228.184 140.6H251.184L218.384 71.6C235.184 68 246.584 55 246.584 37.8C246.584 17 230.184 2 208.184 2H162.984V140.6ZM195.984 4.6C212.984 4.6 223.784 19.4 223.784 37.8C223.784 56 212.984 70.2 195.984 70.2H185.384V4.6H195.984Z" fill="white"/>
<path d="M263.5 140.6L275.3 92.6H315.9L326.7 140.6H349.7L317.7 2H294.5L260.7 140.6H263.5ZM275.9 90L296.3 5.8L315.3 90H275.9Z" fill="white"/>
<path d="M366.695 140.6H390.295C430.895 140.6 461.695 111.8 461.695 71.2C461.695 30.6 430.895 2 390.295 2H366.695V140.6ZM390.295 4.6C418.095 4.6 438.695 32.2 438.695 71.2C438.695 110.4 418.095 138 390.295 138H389.095V4.6H390.295Z" fill="white"/>
<path d="M505.158 140.6V2H482.758V140.6H505.158Z" fill="white"/>
<path d="M529.781 140.6H532.581V10.8L581.181 140.6H604.181V2H601.381V132.2L552.781 2H529.781V140.6Z" fill="white"/>
<path d="M623.852 140.6L635.652 92.6H676.252L687.052 140.6H710.052L678.052 2H654.852L621.052 140.6H623.852ZM636.252 90L656.652 5.8L675.652 90H636.252Z" fill="white"/>
<path d="M771.969 140.6H822.169C843.969 140.6 860.169 124.8 860.169 103.8C860.169 85 845.769 71 824.169 68.4C840.169 63.6 850.769 51 850.769 35.2C850.769 15 834.169 0 811.969 0H771.969V140.6ZM801.169 2.59999C816.369 2.59999 827.969 14.4 827.969 35.2C827.969 56 816.769 68 801.969 68H794.369V2.59999H801.169ZM837.169 104.2C837.169 125.4 824.569 138 809.969 138H794.369V70.4H810.369C824.569 70.4 837.169 83.2 837.169 104.2Z" fill="white"/>
<path d="M900.8 2H878V100.2C878 127 895 142.6 918.2 142.6C941.4 142.6 957.6 126.6 957.6 100.2V2H954.8V100.2C954.8 121.2 944.2 136.4 927.8 136.4C910.2 136.4 900.8 121 900.8 100.2V2Z" fill="white"/>
<path d="M1001.6 140.6V72.6H1041.6V70H1001.6V4.6H1047.8V2H979.195V140.6H1001.6Z" fill="white"/>
<path d="M1085.92 140.6H1108.32V4.6H1140.12V2H1054.12V4.6H1085.92V140.6Z" fill="white"/>
<path d="M1150.88 140.6H1220.07V138H1173.28V72.6H1213.88V70H1173.28V4.6H1220.07V2H1150.88V140.6Z" fill="white"/>
<path d="M1234.2 140.6L1246 92.6H1286.6L1297.4 140.6H1320.4L1288.4 2H1265.2L1231.4 140.6H1234.2ZM1246.6 90L1267 5.8L1286 90H1246.6Z" fill="white"/>
</svg>
