<svg width="40" height="40" viewBox="0 0 40 40" fill="none" xmlns="http://www.w3.org/2000/svg">
<path d="M20 0C8.9543 0 0 8.9543 0 20C0 31.0457 8.9543 40 20 40C31.0457 40 40 31.0457 40 20C40 8.9543 31.0457 0 20 0ZM20 38.1818C9.95844 38.1818 1.8182 30.0416 1.8182 20C1.8182 9.95844 9.95844 1.8182 20 1.8182C30.0416 1.8182 38.1818 9.95844 38.1818 20C38.1818 30.0416 30.0416 38.1818 20 38.1818Z" fill="#0E0E0E"/>
<path d="M20.0317 15.7593C17.716 15.7593 15.8372 17.638 15.8372 19.9538C15.8372 22.2695 17.716 24.1482 20.0317 24.1482C22.3475 24.1482 24.2262 22.2695 24.2262 19.9538C24.2262 17.638 22.3475 15.7593 20.0317 15.7593ZM20.0317 22.6746C18.5294 22.6746 17.3108 21.4562 17.3108 19.9538C17.3108 18.4514 18.5294 17.2329 20.0317 17.2329C21.5341 17.2329 22.7526 18.4514 22.7526 19.9538C22.7526 21.4562 21.5341 22.6746 20.0317 22.6746Z" fill="#0E0E0E"/>
<path d="M25.209 15.7478C25.209 16.2885 24.7705 16.727 24.2296 16.727C23.6889 16.727 23.2504 16.2885 23.2504 15.7478C23.2504 15.2069 23.6889 14.7686 24.2296 14.7686C24.7705 14.7686 25.209 15.2069 25.209 15.7478Z" fill="#0E0E0E"/>
<path d="M28.1585 16.5974C28.1203 15.7298 27.98 15.1334 27.779 14.6165C27.5717 14.0679 27.2527 13.5768 26.8348 13.1685C26.4265 12.7538 25.9321 12.4316 25.3898 12.2275C24.87 12.0265 24.2767 11.8862 23.4091 11.848C22.535 11.8065 22.2575 11.7969 20.0407 11.7969C17.8238 11.7969 17.5463 11.8065 16.6755 11.8447C15.8079 11.883 15.2115 12.0234 14.6948 12.2242C14.1461 12.4316 13.6549 12.7506 13.2466 13.1685C12.8319 13.5768 12.5098 14.0712 12.3056 14.6134C12.1046 15.1334 11.9643 15.7266 11.9261 16.5942C11.8846 17.4682 11.875 17.7457 11.875 19.9626C11.875 22.1794 11.8846 22.4569 11.9228 23.3277C11.9611 24.1953 12.1015 24.7917 12.3025 25.3086C12.5098 25.8572 12.8319 26.3484 13.2466 26.7567C13.6549 27.1713 14.1493 27.4935 14.6915 27.6976C15.2115 27.8986 15.8047 28.0389 16.6724 28.0772C17.5431 28.1155 17.8207 28.125 20.0376 28.125C22.2544 28.125 22.5319 28.1155 23.4027 28.0772C24.2703 28.0389 24.8668 27.8986 25.3835 27.6976C26.4808 27.2734 27.3484 26.4058 27.7726 25.3086C27.9735 24.7886 28.1139 24.1953 28.1522 23.3277C28.1904 22.4569 28.2 22.1794 28.2 19.9626C28.2 17.7457 28.1968 17.4682 28.1585 16.5974ZM26.6881 23.2639C26.653 24.0613 26.5191 24.492 26.4074 24.779C26.133 25.4904 25.5685 26.0549 24.8572 26.3293C24.5701 26.4409 24.1364 26.5749 23.342 26.6099C22.4808 26.6483 22.2225 26.6577 20.0439 26.6577C17.8653 26.6577 17.6038 26.6483 16.7457 26.6099C15.9482 26.5749 15.5176 26.4409 15.2306 26.3293C14.8766 26.1985 14.5544 25.9911 14.2928 25.72C14.0217 25.4552 13.8144 25.1363 13.6835 24.7823C13.5719 24.4952 13.438 24.0613 13.403 23.2672C13.3646 22.4059 13.3551 22.1475 13.3551 19.9689C13.3551 17.7903 13.3646 17.5288 13.403 16.6708C13.438 15.8734 13.5719 15.4427 13.6835 15.1557C13.8144 14.8016 14.0217 14.4795 14.2961 14.2178C14.5607 13.9467 14.8797 13.7394 15.2338 13.6087C15.5209 13.497 15.9547 13.3631 16.7489 13.3279C17.6101 13.2897 17.8686 13.2801 20.047 13.2801C22.2289 13.2801 22.4872 13.2897 23.3453 13.3279C24.1427 13.3631 24.5733 13.497 24.8604 13.6087C25.2144 13.7394 25.5366 13.9467 25.7981 14.2178C26.0693 14.4826 26.2766 14.8016 26.4074 15.1557C26.5191 15.4427 26.653 15.8765 26.6881 16.6708C26.7264 17.532 26.736 17.7903 26.736 19.9689C26.736 22.1475 26.7264 22.4027 26.6881 23.2639Z" fill="#0E0E0E"/>
</svg>
