<svg width="30" height="30" viewBox="0 0 30 30" fill="none" xmlns="http://www.w3.org/2000/svg">
<path d="M27.5928 19.6915C25.7561 19.6915 23.9527 19.4043 22.2436 18.8396C21.4063 18.5539 20.3768 18.8159 19.8657 19.3409L16.4925 21.8873C12.5806 19.7991 10.1708 17.3902 8.11118 13.5076L10.5827 10.2223C11.2248 9.58103 11.4551 8.64427 11.1791 7.76542C10.612 6.04742 10.3238 4.24484 10.3238 2.40734C10.3239 1.07993 9.24397 0 7.91663 0H2.40727C1.07993 0 0 1.07993 0 2.40727C0 17.6221 12.378 30 27.5928 30C28.9202 30 30.0001 28.9201 30.0001 27.5927V22.0988C30 20.7715 28.9201 19.6915 27.5928 19.6915Z" fill="#649831"/>
</svg>
