<svg width="196" height="155" viewBox="0 0 196 155" fill="none" xmlns="http://www.w3.org/2000/svg">
<g clip-path="url(#clip0_30_86)">
<path d="M123.245 141.269L120.282 141.268L118.872 129.834L123.246 129.835L123.245 141.269Z" fill="#9E616A"/>
<path d="M124.001 144.142L114.447 144.142V144.021C114.447 143.034 114.839 142.088 115.536 141.39C116.233 140.693 117.179 140.301 118.165 140.301H118.166L124.001 140.301L124.001 144.142Z" fill="#2F2E41"/>
<path d="M112.611 141.269L109.648 141.268L108.239 129.834L112.612 129.835L112.611 141.269Z" fill="#9E616A"/>
<path d="M113.367 144.142L103.813 144.142V144.021C103.813 143.034 104.205 142.088 104.902 141.39C105.6 140.693 106.546 140.301 107.532 140.301H107.532L113.367 140.301L113.367 144.142Z" fill="#2F2E41"/>
<path d="M78.1034 61.1491C78.3402 61.475 78.6455 61.7449 78.9979 61.9398C79.3502 62.1348 79.741 62.2502 80.1427 62.2777C80.5444 62.3052 80.9473 62.2443 81.3229 62.0992C81.6985 61.9542 82.0378 61.7284 82.3168 61.438L88.1795 63.7285L90.4397 60.5035L82.115 57.3852C81.5963 56.9486 80.9354 56.7176 80.2578 56.7359C79.5801 56.7542 78.9327 57.0205 78.4382 57.4845C77.9437 57.9484 77.6365 58.5777 77.5748 59.2532C77.5131 59.9286 77.7012 60.6032 78.1034 61.1491Z" fill="#9E616A"/>
<path d="M112.574 80.689L104.855 83.2081L107.433 137.901L113.391 138.048L116.439 99.4781L117.132 137.896L124.498 138.302L127.213 80.689H112.574Z" fill="#2F2E41"/>
<path d="M107.366 48.4487L127.177 44.1421L129.38 61.209L127.545 69.3637L128.28 81.7565C128.28 81.7565 112.615 89.5571 104.855 83.2082C104.855 83.2082 111.092 66.8171 107.477 59.1441L107.366 48.4487Z" fill="#E4E4E4"/>
<path d="M110.797 50.8627L107.366 48.4487C107.366 48.4487 107.163 48.1679 104.304 51.512C101.444 54.8562 95.6443 60.1756 95.6443 60.1756L85.9772 56.5487L84.2161 63.059L95.4511 68.2972L111.357 57.6692L110.797 50.8627Z" fill="#E4E4E4"/>
<path d="M128.284 88.1537C128.648 87.9816 128.97 87.7318 129.227 87.4218C129.484 87.1118 129.67 86.7491 129.772 86.3594C129.874 85.9696 129.889 85.5623 129.817 85.166C129.744 84.7698 129.586 84.3942 129.352 84.0659L132.694 78.7297L129.948 75.9072L125.335 83.5092C124.81 83.9378 124.46 84.5443 124.351 85.2138C124.243 85.8834 124.384 86.5694 124.747 87.1419C125.111 87.7144 125.672 88.1336 126.323 88.3201C126.975 88.5065 127.673 88.4473 128.284 88.1537Z" fill="#9E616A"/>
<path d="M124.087 47.5039L127.177 44.1417C127.177 44.1417 130.62 42.9422 133.433 49.1408C136.246 55.3394 139.388 67.9126 139.388 67.9126L132.042 82.0689L126.337 79.5187L132.042 67.8127L126.005 59.1438L124.087 47.5039Z" fill="#E4E4E4"/>
<path d="M118.847 42.7419C121.964 41.0375 123.109 37.1283 121.405 34.0104C119.702 30.8925 115.794 29.7466 112.678 31.451C109.562 33.1554 108.416 37.0647 110.12 40.1826C111.823 43.3005 115.731 44.4463 118.847 42.7419Z" fill="#9E616A"/>
<path d="M121.185 31.3434C120.881 30.0658 119.817 29.0575 118.592 28.5846C117.367 28.1117 116.003 28.1163 114.709 28.3363C112.561 28.7014 110.555 29.6283 108.579 30.5458L110.102 31.275L108 31.3957L109.624 32.2362C109.19 32.5665 108.86 33.0144 108.673 33.5267C108.486 34.039 108.45 34.5942 108.569 35.1265C108.653 35.4749 108.876 35.8587 109.234 35.8708C109.666 35.8853 109.892 35.3809 110.195 35.0715C110.598 34.6599 111.234 34.5685 111.805 34.6461C112.375 34.7236 112.917 34.9433 113.48 35.0647C114.191 35.2131 114.927 35.2049 115.635 35.0407C116.343 34.8765 117.008 34.5603 117.582 34.1138L119.607 38.9942C119.588 38.8101 119.612 38.6241 119.677 38.4508C119.741 38.2774 119.845 38.1213 119.98 37.9947C120.115 37.868 120.277 37.7743 120.454 37.7208C120.631 37.6673 120.818 37.6555 121 37.6863C121.183 37.717 121.356 37.7896 121.505 37.8982C121.655 38.0068 121.778 38.1486 121.864 38.3125C121.95 38.4763 121.996 38.6578 122.001 38.8428C122.005 39.0278 121.966 39.2113 121.888 39.3789C122.765 38.0556 123.47 36.5521 123.494 34.9645C123.519 33.3769 122.732 31.7044 121.291 31.0382" fill="#2F2E41"/>
<path d="M46.658 129.929L43.9187 134.238L45.5143 128.629C42.1454 125.112 37.4817 122.539 37.4817 122.539C37.4817 122.539 31.739 131.982 33.2846 137.79C34.8303 143.599 38.8214 144.708 43.079 143.574C47.3365 142.44 50.2482 139.492 48.7026 133.684C48.3585 132.391 47.6112 131.122 46.658 129.929Z" fill="#F2F2F2"/>
<path d="M43.0337 134.667L43.1099 134.953C43.9785 138.286 44.1084 141.032 43.4942 143.154C43.4858 143.185 43.4755 143.215 43.4671 143.246L43.3239 143.204L43.1867 143.161C43.8825 140.861 43.572 137.956 42.8151 135.049C42.7916 134.955 42.7678 134.859 42.7411 134.765C42.4098 133.537 42.004 132.314 41.5622 131.138C41.5288 131.047 41.4936 130.955 41.4585 130.862C40.8674 129.314 40.2214 127.856 39.623 126.599C39.5811 126.51 39.5378 126.421 39.4949 126.334C38.4733 124.211 37.6073 122.707 37.4127 122.375C37.3897 122.334 37.3762 122.311 37.3732 122.306L37.4977 122.232L37.4987 122.23L37.6245 122.156C37.6274 122.161 37.673 122.235 37.7527 122.375C38.0536 122.896 38.8529 124.315 39.7745 126.222C39.8156 126.308 39.8589 126.396 39.9008 126.485C40.3875 127.505 40.9035 128.652 41.3943 129.869C41.518 130.174 41.6364 130.477 41.7494 130.776C41.786 130.868 41.8212 130.96 41.8546 131.051C42.3323 132.322 42.7254 133.527 43.0337 134.667Z" fill="white"/>
<path d="M39.7745 126.222C39.683 126.26 39.59 126.298 39.4949 126.334C39.2367 126.432 38.9737 126.517 38.7068 126.588C37.5699 126.893 36.3792 126.938 35.2224 126.721C35.1829 126.812 35.1434 126.903 35.1029 126.996C36.3228 127.235 37.5813 127.193 38.7823 126.872C39.0671 126.796 39.3478 126.705 39.623 126.599C39.7167 126.563 39.8097 126.525 39.9008 126.486C40.6544 126.164 41.3549 125.731 41.9783 125.199C41.8966 125.137 41.8168 125.077 41.7387 125.017C41.1468 125.513 40.4849 125.919 39.7745 126.222Z" fill="white"/>
<path d="M41.7494 130.776C41.6532 130.807 41.5562 130.836 41.4585 130.862C41.4291 130.872 41.3979 130.88 41.3682 130.888C40.1358 131.216 38.8424 131.241 37.5982 130.962C36.354 130.682 35.1959 130.105 34.2226 129.28C34.1882 129.379 34.1538 129.478 34.1212 129.578C35.1274 130.406 36.3165 130.983 37.5899 131.26C38.8632 131.537 40.1843 131.507 41.4436 131.171C41.4833 131.161 41.5229 131.15 41.5622 131.138C41.661 131.11 41.758 131.082 41.8546 131.051C43.3466 130.571 44.6688 129.671 45.6629 128.458C45.5953 128.387 45.5277 128.315 45.4587 128.244C44.4949 129.431 43.2058 130.311 41.7494 130.776Z" fill="white"/>
<path d="M43.0337 134.667C42.9368 134.702 42.8391 134.734 42.7411 134.765C42.636 134.797 42.5305 134.829 42.4242 134.857C40.7678 135.296 39.0137 135.187 37.4246 134.545C35.8355 133.903 34.497 132.764 33.6093 131.297C33.5761 131.429 33.5425 131.559 33.5121 131.69C34.4577 133.138 35.835 134.25 37.4484 134.869C39.0618 135.488 40.8293 135.583 42.4997 135.14C42.6059 135.112 42.7118 135.082 42.8151 135.049C42.9149 135.019 43.0126 134.987 43.1099 134.954C45.0712 134.263 46.6971 132.853 47.6582 131.008C47.6006 130.911 47.5391 130.817 47.4771 130.721C46.5652 132.565 44.9714 133.98 43.0337 134.667Z" fill="white"/>
<path d="M153.508 130.378L150.809 134.625L152.381 129.097C149.061 125.631 144.465 123.096 144.465 123.096C144.465 123.096 138.806 132.401 140.329 138.125C141.852 143.85 145.786 144.942 149.981 143.825C154.177 142.707 157.046 139.803 155.523 134.078C155.184 132.804 154.448 131.554 153.508 130.378Z" fill="#F2F2F2"/>
<path d="M149.937 135.048L150.012 135.33C150.868 138.614 150.996 141.32 150.39 143.411C150.382 143.442 150.372 143.471 150.364 143.502L150.223 143.46L150.087 143.418C150.773 141.152 150.467 138.288 149.721 135.424C149.698 135.331 149.675 135.237 149.648 135.144C149.322 133.934 148.922 132.729 148.487 131.57C148.454 131.48 148.419 131.389 148.384 131.298C147.802 129.772 147.165 128.335 146.576 127.097C146.534 127.009 146.492 126.922 146.449 126.836C145.443 124.744 144.589 123.261 144.397 122.934C144.375 122.894 144.361 122.872 144.358 122.866L144.481 122.793L144.482 122.792L144.606 122.718C144.609 122.723 144.654 122.797 144.732 122.934C145.029 123.448 145.817 124.846 146.725 126.725C146.765 126.81 146.808 126.897 146.849 126.985C147.329 127.99 147.837 129.12 148.321 130.319C148.443 130.62 148.56 130.918 148.671 131.213C148.707 131.304 148.742 131.395 148.775 131.485C149.246 132.737 149.633 133.925 149.937 135.048Z" fill="white"/>
<path d="M146.725 126.725C146.635 126.762 146.543 126.8 146.449 126.836C146.195 126.932 145.936 127.016 145.673 127.086C144.552 127.386 143.379 127.431 142.239 127.217C142.2 127.306 142.161 127.396 142.121 127.487C143.323 127.724 144.563 127.682 145.747 127.365C146.028 127.29 146.304 127.201 146.576 127.097C146.668 127.062 146.76 127.024 146.849 126.985C147.592 126.668 148.282 126.241 148.897 125.717C148.816 125.656 148.737 125.596 148.661 125.538C148.077 126.027 147.425 126.427 146.725 126.725Z" fill="white"/>
<path d="M148.671 131.213C148.576 131.244 148.481 131.273 148.384 131.298C148.355 131.308 148.325 131.316 148.295 131.324C147.081 131.647 145.806 131.672 144.58 131.396C143.354 131.12 142.213 130.552 141.254 129.739C141.22 129.837 141.186 129.934 141.154 130.032C142.145 130.849 143.317 131.417 144.572 131.69C145.827 131.963 147.129 131.934 148.37 131.603C148.409 131.593 148.448 131.582 148.487 131.57C148.584 131.543 148.68 131.515 148.775 131.485C150.245 131.011 151.548 130.124 152.528 128.929C152.461 128.859 152.395 128.788 152.326 128.718C151.377 129.888 150.106 130.755 148.671 131.213Z" fill="white"/>
<path d="M149.937 135.048C149.841 135.082 149.745 135.114 149.648 135.144C149.545 135.176 149.441 135.207 149.336 135.235C147.704 135.668 145.975 135.56 144.409 134.927C142.843 134.295 141.524 133.172 140.649 131.727C140.617 131.857 140.583 131.985 140.553 132.114C141.485 133.541 142.843 134.637 144.433 135.247C146.023 135.857 147.764 135.951 149.41 135.514C149.515 135.486 149.619 135.457 149.721 135.424C149.82 135.395 149.916 135.363 150.012 135.33C151.945 134.65 153.547 133.26 154.494 131.442C154.437 131.347 154.377 131.254 154.316 131.159C153.417 132.976 151.846 134.371 149.937 135.048Z" fill="white"/>
<path d="M97.6386 24.8875C97.6386 14.7307 90.5611 6.49707 81.8305 6.49707C73.0999 6.49707 66.0224 14.7307 66.0224 24.8875C66.0224 34.0992 71.8443 41.7288 79.4409 43.0688V44.8019C79.4409 45.1293 79.5709 45.4433 79.8023 45.6748C80.0337 45.9063 80.3475 46.0364 80.6748 46.0364H82.9863C83.3135 46.0364 83.6273 45.9063 83.8587 45.6748C84.0901 45.4433 84.2201 45.1293 84.2201 44.8019V43.0688C91.8167 41.7288 97.6386 34.0992 97.6386 24.8875Z" fill="#649831"/>
<path d="M79.0609 44.5512C79.5555 44.0865 80.1448 43.7344 80.7883 43.519C81.4318 43.3037 82.1142 43.2302 82.7888 43.3036C83.4686 43.3825 84.1208 43.6182 84.6941 43.9922C85.2673 44.3662 85.7459 44.8683 86.0922 45.4589C86.4385 46.032 86.656 46.6736 86.7297 47.3392C86.8034 48.0048 86.7315 48.6785 86.519 49.3135C86.1034 50.5799 85.2202 51.6338 84.3147 52.5837C83.3647 53.5803 82.3316 54.4993 81.4386 55.5496C79.9659 57.2917 78.9375 59.3652 78.4417 61.5922C77.9459 63.8193 77.9975 66.1334 78.5919 68.3362C79.3755 71.1282 80.9934 73.6138 83.2288 75.4598C83.5126 75.6918 83.8049 75.9129 84.1057 76.1229C84.4537 76.3666 84.7833 75.7955 84.4381 75.5539C82.0112 73.8361 80.2176 71.3662 79.3348 68.5261C78.6654 66.3129 78.5798 63.9641 79.0862 61.708C79.5926 59.4519 80.6739 57.3652 82.2249 55.6509C83.167 54.6103 84.2218 53.6788 85.1635 52.6378C86.0657 51.6406 86.8882 50.5156 87.2406 49.1981C87.419 48.5283 87.4632 47.8298 87.3707 47.1428C87.2782 46.4559 87.0508 45.794 86.7016 45.1953C86.354 44.5832 85.8838 44.0496 85.3204 43.6278C84.757 43.2061 84.1127 42.9053 83.4277 42.7444C82.0497 42.4447 80.6092 42.6942 79.4122 43.4399C79.1189 43.6271 78.8452 43.8433 78.5951 44.0853C78.2892 44.38 78.7553 44.8457 79.0609 44.5512Z" fill="#3F3D56"/>
<path d="M36.7224 17.1862C31.8855 6.06152 20.2124 0.416931 10.6498 4.57868C1.08715 8.74044 -2.74377 21.1325 2.09313 32.2572C6.47998 42.3468 16.4901 47.9283 25.4489 45.7749L26.2742 47.6732C26.4301 48.0318 26.722 48.3137 27.0857 48.457C27.4494 48.6002 27.8551 48.5931 28.2135 48.4371L30.7453 47.3353C31.1038 47.1793 31.3856 46.8872 31.5288 46.5233C31.6719 46.1595 31.6648 45.7536 31.5089 45.395L30.6835 43.4967C38.366 38.4077 41.1092 27.2758 36.7224 17.1862Z" fill="#649831"/>
<path d="M25.6902 47.5236C26.0045 46.7992 26.4674 46.149 27.0488 45.6151C27.6303 45.0811 28.3174 44.6753 29.0657 44.424C29.8004 44.1764 30.5803 44.0926 31.3508 44.1782C32.1214 44.2639 32.8639 44.517 33.5264 44.9198C34.2089 45.3243 34.7974 45.8698 35.2526 46.5198C35.7078 47.1698 36.0193 47.9094 36.1662 48.6894C36.5038 50.4969 35.9561 52.338 35.3336 54.0209C34.6811 55.7849 33.868 57.4982 33.4143 59.3301C32.7829 61.9048 32.7702 64.5926 33.3771 67.1732C33.984 69.7538 35.1933 72.1539 36.906 74.1768C39.063 76.6776 41.9039 78.4928 45.079 79.3988C45.4684 79.5086 45.862 79.6024 46.2586 79.6827C46.6724 79.7666 46.8494 79.1315 46.4336 79.0473C43.1301 78.3669 40.1196 76.6764 37.8184 74.2094C35.3789 71.5707 33.9052 68.1828 33.6378 64.5984C33.4946 62.7824 33.6609 60.9552 34.1298 59.195C34.6303 57.3375 35.4774 55.5984 36.1161 53.7887C36.7256 52.0617 37.1575 50.2072 36.7745 48.3796C36.4225 46.7705 35.4466 45.3669 34.061 44.4772C33.3969 44.0391 32.6525 43.7375 31.8709 43.5897C31.0893 43.442 30.2862 43.4512 29.5082 43.6167C27.9193 43.9768 26.5273 44.929 25.6153 46.2795C25.3934 46.6163 25.2058 46.9743 25.0551 47.3484C24.8931 47.7399 25.5301 47.9106 25.6902 47.5236Z" fill="#3F3D56"/>
<path d="M171.837 151.557L175.387 151.556L177.076 137.855L171.836 137.856L171.837 151.557Z" fill="#FFB6B6"/>
<path d="M170.931 150.397L177.923 150.397H177.923C179.105 150.397 180.238 150.867 181.074 151.703C181.909 152.539 182.379 153.673 182.379 154.855V155L170.931 155L170.931 150.397Z" fill="#2F2E41"/>
<path d="M150.822 148.536L154.207 149.607L159.948 137.054L154.952 135.473L150.822 148.536Z" fill="#FFB6B6"/>
<path d="M150.308 147.157L156.975 149.267L156.975 149.267C158.102 149.624 159.041 150.413 159.585 151.463C160.13 152.512 160.236 153.735 159.88 154.862L159.836 155L148.921 151.546L150.308 147.157Z" fill="#2F2E41"/>
<path d="M158.816 88.9829L156.846 94.5422L156.79 124.555L151.203 145.104L158.062 147.019L165.638 127.643L168.068 110.625L171.27 127.742L170.829 148.087H178.025L178.569 116.735C178.721 107.93 177.181 99.1777 174.033 90.9541L158.816 88.9829Z" fill="#2F2E41"/>
<path d="M156.47 66.4634H168.101L172.962 71.3258L174.413 91.425L156.846 94.2534L151.203 75.0759L154.276 66.9256L156.47 66.4634Z" fill="#E4E4E4"/>
<path d="M152.287 75.2679L134.379 68.5266L133.912 65.74L145.206 56.1787L148.965 58.9996L142.152 66.4636L154.276 66.9257L152.287 75.2679Z" fill="#E4E4E4"/>
<path d="M147.379 60.0891C148.978 60.0891 150.274 58.7919 150.274 57.1918C150.274 55.5916 148.978 54.2944 147.379 54.2944C145.779 54.2944 144.483 55.5916 144.483 57.1918C144.483 58.7919 145.779 60.0891 147.379 60.0891Z" fill="#FFB6B6"/>
<path d="M154.095 60.8421L155.403 54.9384C155.633 53.8987 156.065 52.9144 156.675 52.0418C157.284 51.1691 158.06 50.4253 158.958 49.8529C159.855 49.2804 160.856 48.8905 161.904 48.7054C162.952 48.5203 164.027 48.5437 165.066 48.7742C166.105 49.0048 167.088 49.4379 167.96 50.0489C168.831 50.6599 169.574 51.4368 170.145 52.3351C170.717 53.2334 171.105 54.2356 171.289 55.2844C171.473 56.3331 171.449 57.4079 171.217 58.4471L169.909 64.3508C169.846 64.6325 169.674 64.8777 169.431 65.0328C169.188 65.1878 168.893 65.24 168.611 65.1778L154.921 62.1404C154.64 62.0776 154.395 61.9056 154.24 61.6622C154.085 61.4188 154.033 61.1239 154.095 60.8421Z" fill="#2F2E41"/>
<path d="M163.11 63.0675C166.26 62.1544 168.074 58.8594 167.161 55.708C166.248 52.5565 162.955 50.742 159.805 51.6552C156.655 52.5683 154.841 55.8633 155.754 59.0148C156.667 62.1662 159.96 63.9807 163.11 63.0675Z" fill="#FFB6B6"/>
<path d="M153.428 54.9958C153.798 53.3371 154.81 51.8929 156.242 50.9799C157.675 50.0669 159.411 49.7597 161.07 50.1258L162.25 50.3876C163.908 50.7574 165.352 51.7701 166.264 53.2034C167.177 54.6368 167.484 56.3737 167.118 58.0333L167.092 58.1513L164.598 57.598L164.275 55.0261L163.577 57.3715L162.288 57.0855L162.125 55.7879L161.773 56.9712L153.402 55.1139L153.428 54.9958Z" fill="#2F2E41"/>
<path d="M159.424 63.8358C159.342 63.6512 159.314 63.4472 159.343 63.2473C159.371 63.0474 159.456 62.8597 159.587 62.7058C161.365 60.6034 164.091 56.5944 162.368 53.3667L162.244 53.1348L168.992 54.6319L166.745 64.7672L160.375 64.4893C160.311 64.4865 160.247 64.4781 160.184 64.4642C160.017 64.427 159.86 64.3507 159.728 64.2415C159.596 64.1322 159.492 63.9932 159.424 63.8358Z" fill="#2F2E41"/>
<path d="M167.639 66.585L186.582 69.2798L187.642 71.899L178.689 83.6833L174.408 81.7454L179.441 72.9807L167.505 75.1604L167.639 66.585Z" fill="#E4E4E4"/>
<path d="M196 28.3799C196 16.2482 187.546 6.41357 177.118 6.41357C166.69 6.41357 158.236 16.2482 158.236 28.3799C158.236 39.3827 165.19 48.4959 174.264 50.0965V52.1666C174.264 52.5576 174.419 52.9327 174.696 53.2092C174.972 53.4857 175.347 53.6411 175.738 53.6411H178.499C178.889 53.6411 179.264 53.4857 179.541 53.2092C179.817 52.9327 179.972 52.5576 179.972 52.1666V50.0965C189.046 48.4959 196 39.3827 196 28.3799Z" fill="#649831"/>
<path d="M173.765 51.8219C174.364 51.2581 175.079 50.8314 175.859 50.5713C176.64 50.3112 177.468 50.2239 178.285 50.3154C179.089 50.4101 179.86 50.6864 180.54 51.1234C181.221 51.5604 181.793 52.1467 182.214 52.8378C182.642 53.5199 182.918 54.2866 183.021 55.0853C183.125 55.884 183.054 56.6957 182.815 57.4646C182.349 58.9738 181.326 60.2373 180.26 61.37C179.123 62.5782 177.878 63.683 176.791 64.9385C175.018 66.999 173.773 69.4592 173.161 72.1078C172.55 74.7563 172.59 77.5138 173.279 80.1432C174.201 83.5227 176.149 86.5326 178.854 88.7571C179.182 89.0246 179.52 89.2797 179.868 89.5224C180.216 89.766 180.546 89.1949 180.2 88.9534C177.304 86.905 175.158 83.9628 174.093 80.5778C173.284 77.9355 173.169 75.1293 173.76 72.4298C174.351 69.7303 175.627 67.2288 177.466 65.1666C178.583 63.9185 179.842 62.8067 180.972 61.5707C182.054 60.3871 183.048 59.0583 183.493 57.4943C183.717 56.7043 183.782 55.8778 183.684 55.0626C183.587 54.2473 183.328 53.4595 182.925 52.7447C182.523 52.0138 181.974 51.3738 181.313 50.865C180.652 50.3561 179.893 49.9894 179.084 49.7878C177.439 49.4096 175.712 49.6962 174.278 50.5853C173.926 50.8079 173.598 51.0661 173.299 51.3559C172.993 51.6511 173.46 52.1167 173.765 51.8219Z" fill="#3F3D56"/>
<path d="M176.048 87.0344C177.648 87.0344 178.944 85.7372 178.944 84.1371C178.944 82.5369 177.648 81.2397 176.048 81.2397C174.449 81.2397 173.152 82.5369 173.152 84.1371C173.152 85.7372 174.449 87.0344 176.048 87.0344Z" fill="#FFB6B6"/>
<path d="M145.871 58.0051C145.719 58.2454 145.351 58.2105 145.144 58.0603C144.857 57.8517 144.95 57.4501 145.148 57.2127C145.776 56.4584 146.814 57.2548 146.955 58.0039C147.007 58.3692 146.95 58.7417 146.793 59.0753C146.635 59.4089 146.383 59.6889 146.068 59.8806C145.352 60.3054 144.421 60.0923 143.805 59.5839C142.519 58.5232 142.869 56.3994 144.297 55.6321C145.208 55.1423 146.36 55.3573 147.257 55.7675C148.268 56.2293 149.136 56.9371 150.071 57.5271C152.12 58.8109 154.439 59.6031 156.846 59.8418C157.267 59.8848 157.264 59.2255 156.846 59.1828C155.512 59.0449 154.203 58.7295 152.953 58.2449C151.716 57.7433 150.542 57.0986 149.455 56.3239C148.355 55.5695 147.205 54.8367 145.844 54.7121C145.295 54.6479 144.738 54.7304 144.231 54.9512C143.724 55.1719 143.284 55.5232 142.957 55.9691C142.665 56.3681 142.47 56.8292 142.387 57.3163C142.303 57.8033 142.334 58.303 142.476 58.7763C142.647 59.2712 142.946 59.712 143.343 60.0536C143.739 60.3953 144.219 60.6258 144.734 60.7215C145.229 60.8151 145.742 60.7518 146.199 60.5402C146.657 60.3286 147.037 59.9795 147.287 59.5413C147.788 58.6743 147.772 57.5097 147.015 56.7909C146.798 56.5702 146.526 56.4112 146.228 56.33C145.929 56.2487 145.615 56.2483 145.316 56.3286C145.041 56.4216 144.799 56.5929 144.619 56.8214C144.44 57.05 144.331 57.3259 144.305 57.6155C144.232 58.7409 145.829 59.3037 146.44 58.3377C146.667 57.9782 146.097 57.6472 145.871 58.0051Z" fill="#3F3D56"/>
<path d="M14.0947 93.4208L13.2248 94.5128L10.1479 92.6918L11.0178 91.5996L14.0947 93.4208Z" fill="#E4E4E4"/>
<path d="M17.3052 98.1128L18.0737 99.2601L14.8414 100.869L14.0729 99.7214L17.3052 98.1128Z" fill="#E4E4E4"/>
<path d="M20.6513 93.125L22.1869 93.1793L22.0341 96.3938L20.4985 96.3395L20.6513 93.125Z" fill="#E4E4E4"/>
<path d="M50.3215 6.43402L49.4516 7.52596L46.3748 5.70496L47.2447 4.61279L50.3215 6.43402Z" fill="#E4E4E4"/>
<path d="M53.5321 11.126L54.3006 12.2733L51.0682 13.8819L50.2998 12.7346L53.5321 11.126Z" fill="#E4E4E4"/>
<path d="M56.8781 6.13867L58.4137 6.19293L58.2609 9.40748L56.7253 9.35322L56.8781 6.13867Z" fill="#E4E4E4"/>
<path d="M135.729 17.8564L134.859 18.9483L131.782 17.1273L132.652 16.0352L135.729 17.8564Z" fill="#E4E4E4"/>
<path d="M138.94 22.5488L139.708 23.6961L136.476 25.3047L135.707 24.1574L138.94 22.5488Z" fill="#E4E4E4"/>
<path d="M142.286 17.561L143.821 17.6153L143.668 20.8298L142.133 20.7756L142.286 17.561Z" fill="#E4E4E4"/>
<path d="M109.602 1.82123L108.732 2.91317L105.655 1.09216L106.525 0L109.602 1.82123Z" fill="#E4E4E4"/>
<path d="M112.812 6.51318L113.581 7.66048L110.349 9.26907L109.58 8.12178L112.812 6.51318Z" fill="#E4E4E4"/>
<path d="M116.158 1.52539L117.694 1.57965L117.541 4.79419L116.006 4.73994L116.158 1.52539Z" fill="#E4E4E4"/>
<path d="M136.165 83.9111L135.295 85.1787L138.372 87.2925L139.242 86.0249L136.165 83.9111Z" fill="#E4E4E4"/>
<path d="M139.22 93.3383L139.989 94.6699L143.221 92.8028L142.453 91.4712L139.22 93.3383Z" fill="#E4E4E4"/>
<path d="M145.646 89.4131L147.181 89.4761L147.334 85.7449L145.799 85.682L145.646 89.4131Z" fill="#E4E4E4"/>
<path d="M70.8946 141.435L73.5546 141.023L71.7309 119.76L65.8029 120.858L70.8946 141.435Z" fill="#FFB6B6"/>
<path d="M70.0817 140.671L75.3204 139.86C76.2058 139.723 77.1096 139.944 77.8325 140.473C78.5553 141.003 79.0384 141.798 79.1753 142.684L79.1921 142.792L70.6148 144.119L70.0817 140.671Z" fill="#2F2E41"/>
<path d="M42.937 141.171L45.6261 141.286L48.897 122.396L42.969 122.396L42.937 141.171Z" fill="#FFB6B6"/>
<path d="M42.2883 140.263L47.5845 140.489H47.5847C48.4798 140.527 49.3231 140.92 49.9291 141.58C50.535 142.24 50.854 143.114 50.8159 144.01L50.8113 144.119L42.1399 143.75L42.2883 140.263Z" fill="#2F2E41"/>
<path d="M48.2317 79.6259C48.1047 79.5902 47.9748 79.566 47.8436 79.5536L49.5201 65.8245L55.2086 53.772C55.5664 53.0138 55.6236 52.1481 55.3686 51.3494C55.1136 50.5507 54.5653 49.8785 53.8343 49.4683C53.1034 49.0582 52.2442 48.9406 51.43 49.1393C50.6158 49.338 49.9073 49.8383 49.4472 50.5391C47.9563 52.8102 46.8285 55.3001 46.1045 57.9189L43.7146 66.5641L45.4622 81.3897C45.3952 81.8076 45.4503 82.2359 45.6209 82.6232C45.7915 83.0105 46.0703 83.3402 46.4238 83.5727C46.7772 83.8051 47.1903 83.9305 47.6133 83.9336C48.0363 83.9367 48.4512 83.8174 48.8081 83.5901C49.1649 83.3629 49.4485 83.0373 49.6248 82.6525C49.801 82.2678 49.8624 81.8403 49.8015 81.4215C49.7406 81.0027 49.56 80.6104 49.2815 80.2918C49.003 79.9733 48.6384 79.742 48.2317 79.6259Z" fill="#FFB6B6"/>
<path d="M51.6855 66.9867L44.4986 58.7611L48.0589 50.3827C48.5251 49.2856 49.4015 48.4142 50.5009 47.9545C51.6003 47.4947 52.8358 47.4831 53.9437 47.9221C55.0516 48.3611 55.9441 49.2159 56.4308 50.3041C56.9175 51.3923 56.9598 52.6277 56.5488 53.7467L51.6855 66.9867Z" fill="#2F2E41"/>
<path d="M63.6324 40.7636C65.3615 37.599 64.199 33.6312 61.036 31.9013C57.8729 30.1713 53.907 31.3344 52.1779 34.499C50.4488 37.6636 51.6113 41.6314 54.7744 43.3613C57.9374 45.0912 61.9033 43.9282 63.6324 40.7636Z" fill="#FFB6B6"/>
<path d="M58.9966 29.6978H54.7802C52.016 29.6978 49.7752 32.2199 49.7752 35.3312L49.9703 42.8775C52.9571 43.2493 55.8784 44.031 58.6518 45.2006L59.0454 43.5192L59.8217 45.7336C60.5121 46.0683 61.1966 46.4342 61.8753 46.8315C61.0831 43.1079 60.7571 39.3931 61.301 36.5073H62.7291V34.9437L63.2138 36.5073H65.8029C65.8029 35.6131 65.6268 34.7276 65.2848 33.9014C64.9427 33.0752 64.4414 32.3245 63.8094 31.6922C63.1773 31.0599 62.427 30.5583 61.6013 30.2161C60.7755 29.8739 59.8904 29.6977 58.9966 29.6978Z" fill="#2F2E41"/>
<path d="M72.7446 120.915L72.1338 121.062L71.6211 111.522L67.8887 82.9658L63.6073 72.0925L65.6931 64.5141C65.6931 64.5141 68.1082 59.2422 62.0704 55.1784L57.2402 47.0509C53.9036 44.8682 51.1584 46.2954 49.695 50.0054C48.4199 53.238 47.4301 57.3275 48.0188 61.5487C49.3375 71.0042 50.4339 72.0925 50.4339 72.0925C50.4339 72.0925 42.2005 81.2085 43.957 92.8506L42.9781 122.994L42.0825 122.957L41.9844 125.351L49.8086 125.672L49.9067 123.278L49.2576 123.251L52.0806 111.302L56.2522 95.4866L63.4975 114.817L65.9345 122.555L65.1317 122.749L65.6925 125.079L73.3054 123.244L72.7446 120.915Z" fill="#2F2E41"/>
<path d="M78.1214 66.7865C78.0328 66.8841 77.9531 66.9896 77.8833 67.1015L66.3559 59.4667L58.1203 48.99C57.6022 48.3309 56.8536 47.8929 56.0255 47.7643C55.1973 47.6357 54.3513 47.8261 53.6579 48.2971C52.9646 48.768 52.4755 49.4846 52.2894 50.3021C52.1033 51.1196 52.2341 51.9774 52.6552 52.7023C54.0199 55.0515 55.7424 57.1734 57.7606 58.9915L64.4233 64.9933L78.4612 70.0534C78.8049 70.3001 79.2126 70.4421 79.6351 70.4625C80.0576 70.4828 80.477 70.3806 80.8428 70.1681C81.2086 69.9556 81.5053 69.6418 81.6971 69.2646C81.8888 68.8874 81.9676 68.4627 81.9238 68.0418C81.88 67.6208 81.7156 67.2215 81.4503 66.8919C81.185 66.5622 80.8301 66.3163 80.4284 66.1837C80.0267 66.051 79.5953 66.0374 79.186 66.1443C78.7767 66.2513 78.407 66.4742 78.1214 66.7865Z" fill="#FFB6B6"/>
<path d="M68.3625 58.0477L57.7961 60.8052L51.895 53.8749C51.1222 52.9674 50.7345 51.7937 50.8147 50.6042C50.8949 49.4147 51.4365 48.3037 52.3241 47.5082C53.2116 46.7128 54.3747 46.2958 55.5652 46.3464C56.7558 46.397 57.8794 46.9111 58.6963 47.779L68.3625 58.0477Z" fill="#2F2E41"/>
<path d="M150.263 144.343H8.1456C8.07627 144.343 8.00977 144.315 7.96075 144.266C7.91172 144.217 7.88418 144.151 7.88418 144.081C7.88418 144.012 7.91172 143.945 7.96075 143.896C8.00977 143.847 8.07627 143.82 8.1456 143.82H150.263C150.333 143.82 150.399 143.847 150.448 143.896C150.497 143.945 150.525 144.012 150.525 144.081C150.525 144.151 150.497 144.217 150.448 144.266C150.399 144.315 150.333 144.343 150.263 144.343Z" fill="#CACACA"/>
</g>
<defs>
<clipPath id="clip0_30_86">
<rect width="196" height="155" fill="white"/>
</clipPath>
</defs>
</svg>
