<svg width="50" height="50" viewBox="0 0 50 50" fill="none" xmlns="http://www.w3.org/2000/svg">
<g clip-path="url(#clip0_5_40)">
<path d="M49.7872 45.61C49.4513 45.1882 48.8369 45.1186 48.4152 45.4545C47.3627 46.2929 45.8914 46.2943 44.8365 45.4573L44.822 45.4456C43.0519 44.041 40.5812 44.0433 38.8137 45.4511C37.7605 46.2899 36.2903 46.291 35.2361 45.4548C35.2345 45.4534 35.2329 45.4522 35.2312 45.4509C33.4638 44.0433 30.9932 44.0409 29.2227 45.4461L29.2038 45.4611C28.1519 46.2961 26.682 46.2961 25.6299 45.4613L25.6102 45.4455C23.8399 44.0408 21.3694 44.0433 19.5978 45.4541C18.5452 46.2926 17.0738 46.2938 16.0192 45.4569L16.0008 45.4422C14.2334 44.0395 11.7649 44.0397 9.99765 45.4429L9.97939 45.4573C8.92519 46.2944 7.45341 46.2932 6.40439 45.4576C6.40302 45.4566 6.39794 45.4525 6.39657 45.4514C4.6287 44.0433 2.1581 44.0411 0.3872 45.4464L0.368645 45.4612C-0.0534252 45.7967 -0.123542 46.4108 0.212005 46.8329C0.547551 47.2549 1.16152 47.3253 1.58378 46.9897L1.60185 46.9754C2.65585 46.1389 4.12743 46.1401 5.17626 46.9756C5.17763 46.9767 5.18271 46.9809 5.18407 46.9819C6.95224 48.3903 9.42353 48.3923 11.1939 46.9864L11.2122 46.972C12.2645 46.1363 13.7348 46.1364 14.7875 46.9719L14.806 46.9865C16.5762 48.3917 19.047 48.3895 20.8186 46.9783C21.8712 46.1401 23.3425 46.1388 24.3966 46.975L24.4163 46.9907C25.2996 47.6918 26.358 48.0422 27.4168 48.0422C28.4756 48.0421 29.5348 47.6914 30.4183 46.9902L30.4371 46.9752C31.4895 46.1399 32.9583 46.1398 34.0107 46.9748C34.0123 46.9761 34.0139 46.9774 34.0154 46.9786C35.7862 48.3889 38.2596 48.3888 40.0303 46.9784C41.0829 46.1401 42.5541 46.1388 43.6091 46.9758L43.6236 46.9873C45.3936 48.3918 47.8641 48.3898 49.6318 46.9819C50.0535 46.6459 50.123 46.0318 49.7872 45.61Z" fill="white"/>
<path d="M11.6812 34.4611C11.4997 34.2786 11.2487 34.1751 10.991 34.1751C10.7343 34.1751 10.4824 34.2786 10.3008 34.4611C10.1192 34.6427 10.0147 34.8946 10.0147 35.1514C10.0147 35.4081 10.1193 35.66 10.3008 35.8416C10.4823 36.0232 10.7343 36.1276 10.991 36.1276C11.2487 36.1276 11.4996 36.0232 11.6812 35.8416C11.8628 35.6601 11.9673 35.4081 11.9673 35.1514C11.9673 34.8946 11.8627 34.6428 11.6812 34.4611Z" fill="white"/>
<path d="M6.88653 42.0135L6.87285 42.0021C4.95049 40.4092 3.42998 38.3974 2.42285 36.1273H6.4962C7.03526 36.1273 7.47246 35.6902 7.47246 35.1511C7.47246 34.6119 7.03526 34.1748 6.4962 34.1748H0.991117C0.675589 34.1748 0.379593 34.3273 0.196292 34.5841C0.0130893 34.8409 -0.0346645 35.1704 0.0678745 35.4688C1.14805 38.6081 3.07032 41.3872 5.62627 43.5053L5.63946 43.5162C5.82168 43.6676 6.04268 43.7412 6.26231 43.7412C6.54278 43.7412 6.8211 43.6209 7.01436 43.3882C7.3587 42.9732 7.30137 42.3577 6.88653 42.0135Z" fill="white"/>
<path d="M49.8185 34.5841C49.6353 34.3274 49.3392 34.1748 49.0236 34.1748H25.9836V2.93409C25.9836 2.39493 25.5464 1.95782 25.0073 1.95782C24.4683 1.95782 24.0311 2.39493 24.0311 2.93409V34.1748H15.0005C14.4614 34.1748 14.0242 34.6119 14.0242 35.1511C14.0242 35.6902 14.4614 36.1274 15.0005 36.1274H47.5919C46.5848 38.3974 45.0643 40.4093 43.1415 42.0026L43.1283 42.0135C42.7134 42.3577 42.6561 42.9733 43.0003 43.3882C43.1935 43.6209 43.4718 43.7411 43.7522 43.7411C43.9719 43.7411 44.1929 43.6673 44.3751 43.5161L44.3878 43.5057C46.9443 41.3872 48.8665 38.6081 49.9467 35.4687C50.0495 35.1704 50.0018 34.8409 49.8185 34.5841Z" fill="white"/>
<path d="M29.6027 15.46C29.4213 15.2784 29.1693 15.174 28.9126 15.174C28.6559 15.174 28.404 15.2784 28.2224 15.46C28.0407 15.6415 27.9363 15.8935 27.9363 16.1502C27.9363 16.407 28.0408 16.6588 28.2224 16.8405C28.4039 17.0221 28.6559 17.1265 28.9126 17.1265C29.1693 17.1265 29.4212 17.022 29.6027 16.8405C29.7844 16.6589 29.8889 16.407 29.8889 16.1502C29.8889 15.8935 29.7843 15.6415 29.6027 15.46Z" fill="white"/>
<path d="M41.0096 15.2529C38.5769 10.4392 34.996 6.20372 30.6537 3.0045L29.4916 2.14825C29.195 1.9297 28.8007 1.89689 28.4723 2.0628C28.1436 2.22892 27.9363 2.56583 27.9363 2.93409V11.9605C27.9363 12.4996 28.3735 12.9367 28.9126 12.9367C29.4517 12.9367 29.8889 12.4996 29.8889 11.9605V4.87071C37.7083 10.8177 42.4641 20.0738 42.7609 29.8793H29.8889V19.5735C29.8889 19.0344 29.4517 18.5973 28.9126 18.5973C28.3735 18.5973 27.9363 19.0344 27.9363 19.5735V30.8555C27.9363 31.1144 28.0393 31.3627 28.2223 31.5458C28.4054 31.7288 28.6537 31.8318 28.9126 31.8318H43.7518C44.2908 31.8318 44.728 31.3946 44.728 30.8555C44.728 25.4619 43.4421 20.0667 41.0096 15.2529Z" fill="white"/>
<path d="M21.3383 6.91961C20.9028 6.81102 20.4504 7.01327 20.24 7.40916L8.03661 30.3976C7.87616 30.7002 7.88573 31.0649 8.0623 31.3585C8.23876 31.6521 8.55644 31.8317 8.89892 31.8317H21.1023C21.6414 31.8317 22.0786 31.3946 22.0786 30.8555V7.86698C22.0786 7.41854 21.7732 7.02782 21.3383 6.91961ZM20.1261 29.8792H10.5225L20.1261 11.7883V29.8792Z" fill="white"/>
</g>
<defs>
<clipPath id="clip0_5_40">
<rect width="50" height="50" fill="white"/>
</clipPath>
</defs>
</svg>
